<?xml version="1.0" encoding="UTF-8"?>
<!DOCTYPE svg PUBLIC "-//W3C//DTD SVG 1.1//EN" "http://www.w3.org/Graphics/SVG/1.1/DTD/svg11.dtd">
<!-- Creator: CorelDRAW 2019 (64-Bit) -->
<svg xmlns="http://www.w3.org/2000/svg" xml:space="preserve" width="14.7317mm" height="6.7144mm" version="1.1" style="shape-rendering:geometricPrecision; text-rendering:geometricPrecision; image-rendering:optimizeQuality; fill-rule:evenodd; clip-rule:evenodd"
viewBox="0 0 105.11 47.91"
 xmlns:xlink="http://www.w3.org/1999/xlink"
 xmlns:xodm="http://www.corel.com/coreldraw/odm/2003">
 <defs>
  <style type="text/css">
   <![CDATA[
    .fil0 {fill:#141524}
    .fil1 {fill:#D4AF37}
    .fil3 {fill:white}
    .fil2 {fill:white;fill-rule:nonzero}
   ]]>
  </style>
 </defs>
 <g id="Capa_x0020_1">
  <metadata id="CorelCorpID_0Corel-Layer"/>
  <circle class="fil0" cx="23.95" cy="23.95" r="23.95"/>
  <path class="fil1" d="M29.01 47.91l52.14 0c13.17,0 23.95,-10.78 23.95,-23.95l0 0c0,-13.17 -10.78,-23.95 -23.95,-23.95l-57.2 0c13.23,0 23.95,10.72 23.95,23.95 0,12.33 -9.31,22.48 -21.29,23.81 0.71,0.1 1.5,0.15 2.4,0.15z"/>
  <path class="fil2" d="M8.36 11.99l0 -2.42 7.6 0.18c2.56,0 5.3,-0.06 8.22,-0.18l0 2.42c-1.83,0.06 -2.92,0.17 -3.26,0.32 -0.35,0.16 -0.52,0.42 -0.52,0.8 0,0.24 0.1,0.69 0.3,1.39l1.77 4.91 3.92 10.16 3.85 -9c1.78,-4.19 2.68,-6.66 2.68,-7.4 0,-0.41 -0.16,-0.69 -0.48,-0.84 -0.32,-0.15 -1.46,-0.26 -3.4,-0.34l0 -2.42c2.57,0.12 4.66,0.18 6.27,0.18 1.75,0 3.62,-0.06 5.63,-0.18l0 2.42c-1.57,0.06 -2.56,0.26 -2.95,0.6 -0.39,0.34 -1.52,2.54 -3.4,6.57 -1.87,4.04 -4.53,10.18 -7.96,18.44l-5.2 0c-1.3,-3.55 -3.25,-8.6 -5.85,-15.12 -1.71,-4.26 -2.86,-7.05 -3.45,-8.37 -0.39,-0.85 -0.77,-1.39 -1.12,-1.62 -0.35,-0.24 -1.23,-0.4 -2.63,-0.5z"/>
  <polygon class="fil3" points="72.93,8.82 81.04,8.82 81.04,17.76 90.78,17.76 90.78,25.86 81.04,25.86 81.04,34.8 72.93,34.8 72.93,25.86 63.2,25.86 63.2,17.76 72.93,17.76 "/>
 </g>
</svg>
